<?xml version="1.0" encoding="iso-8859-1"?>
<!-- Generator: Adobe Illustrator 17.1.0, SVG Export Plug-In . SVG Version: 6.00 Build 0)  -->
<!DOCTYPE svg PUBLIC "-//W3C//DTD SVG 1.1//EN" "http://www.w3.org/Graphics/SVG/1.1/DTD/svg11.dtd">
<svg version="1.1" id="Capa_1" xmlns="http://www.w3.org/2000/svg" xmlns:xlink="http://www.w3.org/1999/xlink" x="0px" y="0px"
	 viewBox="0 0 442 442" style="enable-background:new 0 0 442 442;" xml:space="preserve">
<g>
	<path d="M221,0C125.114,0,47.105,78.009,47.105,173.895c0,31.402,8.103,64.738,24.083,99.081
		c12.618,27.116,30.165,54.95,52.154,82.729c37.277,47.092,74.029,77.433,75.576,78.701C204.888,439.302,212.73,442,221,442
		s16.112-2.698,22.083-7.595c1.546-1.269,38.298-31.609,75.575-78.701c21.989-27.778,39.536-55.612,52.154-82.729
		c15.98-34.343,24.083-67.678,24.083-99.081C394.895,78.009,316.886,0,221,0z M303.229,342.972
		c-35.955,45.495-72.469,75.673-72.831,75.97C228.029,420.885,224.604,422,221,422s-7.029-1.115-9.397-3.058
		c-1.445-1.185-144.497-119.989-144.497-245.047C67.105,89.037,136.142,20,221,20s153.895,69.037,153.895,153.895
		C374.895,238.689,335.922,301.603,303.229,342.972z"/>
	<path d="M221,81.438c-50.98,0-92.456,41.476-92.456,92.457c0,50.98,41.476,92.456,92.456,92.456s92.456-41.476,92.456-92.456
		C313.456,122.914,271.98,81.438,221,81.438z M221,246.351c-39.953,0-72.456-32.503-72.456-72.456s32.503-72.457,72.456-72.457
		s72.456,32.504,72.456,72.457S260.953,246.351,221,246.351z"/>
</g>
<g>
</g>
<g>
</g>
<g>
</g>
<g>
</g>
<g>
</g>
<g>
</g>
<g>
</g>
<g>
</g>
<g>
</g>
<g>
</g>
<g>
</g>
<g>
</g>
<g>
</g>
<g>
</g>
<g>
</g>
</svg>
