<?xml version="1.0" encoding="iso-8859-1"?>
<!-- Generator: Adobe Illustrator 19.0.0, SVG Export Plug-In . SVG Version: 6.00 Build 0)  -->
<svg version="1.1" id="Capa_1" xmlns="http://www.w3.org/2000/svg" xmlns:xlink="http://www.w3.org/1999/xlink" x="0px" y="0px"
	 viewBox="0 0 463 463" style="enable-background:new 0 0 463 463;" xml:space="preserve">
<g>
	<path d="M439.5,50.581h-416c-12.958,0-23.5,10.542-23.5,23.5v229.675c0,0.002,0,0.003,0,0.005v85.159
		c0,12.958,10.542,23.5,23.5,23.5h416c12.958,0,23.5-10.542,23.5-23.5V74.081C463,61.123,452.458,50.581,439.5,50.581z M23.5,65.581
		h416c4.687,0,8.5,3.813,8.5,8.5v236.629h-76.103L222.352,161.165c-2.929-2.929-7.678-2.929-10.606,0l-81.407,81.406l-30.826-30.826
		c-2.929-2.929-7.678-2.929-10.606,0L15,285.651V74.081C15,69.394,18.813,65.581,23.5,65.581z M439.5,397.419h-416
		c-4.687,0-8.5-3.813-8.5-8.5v-82.055l79.209-79.209l30.823,30.823c0.001,0.001,0.001,0.002,0.002,0.002s0.001,0.001,0.002,0.002
		l36.127,36.127c2.929,2.929,7.678,2.929,10.606,0c2.929-2.929,2.929-7.678,0-10.606l-30.826-30.826l76.103-76.103l146.438,146.438
		c1.406,1.407,3.314,2.197,5.303,2.197H448v63.209C448,393.606,444.187,397.419,439.5,397.419z"/>
	<path d="M354.338,195.645c20.073,0,36.403-16.331,36.403-36.403s-16.331-36.403-36.403-36.403s-36.403,16.33-36.403,36.403
		S334.266,195.645,354.338,195.645z M354.338,137.839c11.802,0,21.403,9.601,21.403,21.403s-9.602,21.403-21.403,21.403
		s-21.403-9.602-21.403-21.403S342.537,137.839,354.338,137.839z"/>
</g>
<g>
</g>
<g>
</g>
<g>
</g>
<g>
</g>
<g>
</g>
<g>
</g>
<g>
</g>
<g>
</g>
<g>
</g>
<g>
</g>
<g>
</g>
<g>
</g>
<g>
</g>
<g>
</g>
<g>
</g>
</svg>
